<svg xmlns="http://www.w3.org/2000/svg" viewBox="0 0 256 192"><defs><style>.cls-1{fill:none;}.cls-2{fill:#fd7;}</style></defs><title>Asset 3</title><g id="Layer_2" data-name="Layer 2"><g id="Layer_1-2" data-name="Layer 1"><rect class="cls-1" width="256" height="192"/><rect class="cls-2" x="28" y="48" width="92" height="20"/><path d="M48.25,31.32c8.39,0,16.29,6.19,16.29,16.66s-7.9,16.7-16.29,16.7S32,58.49,32,48,39.85,31.32,48.25,31.32Zm0,28.21C53.67,59.53,59,55.7,59,48S53.67,36.42,48.25,36.42,37.55,40.26,37.55,48,42.88,59.53,48.25,59.53Z"/><path d="M75.33,64H70.1V42h5.1V45a7.3,7.3,0,0,1,6.5-3.56c5.37,0,7.94,3.88,7.94,8.71V64H84.4V51c0-2.71-1.21-4.87-4.51-4.87-3,0-4.56,2.3-4.56,5.19Z"/><path d="M115.73,57.73c-1.17,3.83-4.65,7-9.93,7-6,0-11.24-4.34-11.24-11.78,0-6.95,5.15-11.56,10.7-11.56C112,41.34,116,45.81,116,52.76a7.27,7.27,0,0,1-.14,1.67H99.8a5.88,5.88,0,0,0,6,5.73,5.31,5.31,0,0,0,5.51-3.83Zm-5-7.14c-.09-2.57-1.81-4.87-5.42-4.87a5.28,5.28,0,0,0-5.37,4.87Z"/><path d="M32,112V80H51.9v5.1H37.42v9h13v5h-13V112Z"/><path d="M60.21,78.87a3.44,3.44,0,0,1,3.43,3.43,3.41,3.41,0,1,1-3.43-3.43ZM57.64,112V90h5.19v22Z"/><path d="M75.92,112H70.68V90h5.1V93a7.3,7.3,0,0,1,6.5-3.56c5.37,0,7.94,3.88,7.94,8.71V112H85V99c0-2.71-1.22-4.87-4.52-4.87-3,0-4.55,2.3-4.55,5.19Z"/><path d="M103,99.41l5.64-.86c1.27-.18,1.63-.81,1.63-1.58,0-1.85-1.27-3.34-4.16-3.34a4.24,4.24,0,0,0-4.51,4l-4.78-1.08c.4-3.79,3.83-7.18,9.25-7.18,6.77,0,9.34,3.84,9.34,8.22v10.92a20.68,20.68,0,0,0,.27,3.52h-4.87a11.72,11.72,0,0,1-.23-2.8,7.66,7.66,0,0,1-6.77,3.48c-4.6,0-7.44-3.16-7.44-6.64C96.32,102.12,99.2,100,103,99.41Zm7.27,3.47v-1l-5.73.86c-1.63.27-2.94,1.17-2.94,3a2.91,2.91,0,0,0,3.21,2.84C107.69,108.57,110.22,107.17,110.22,102.88Z"/><path d="M122.76,112V79.32H128V112Z"/><path d="M144,112V80h11.33c8.71,0,15.57,5.78,15.57,16.07S164,112,155.28,112Zm11.1-5c5.56,0,10.16-3.57,10.16-11S160.7,85,155.15,85h-5.73V107Z"/><path d="M198.24,101c0,6.77-4.83,11.69-11.42,11.69s-11.37-4.92-11.37-11.69,4.83-11.65,11.37-11.65S198.24,94.26,198.24,101ZM193,101c0-4.56-2.89-6.91-6.14-6.91s-6.14,2.35-6.14,6.91,2.94,7,6.14,7S193,105.59,193,101Z"/><path d="M207.75,101c0,4.42,2.84,6.9,6.14,6.9a5.55,5.55,0,0,0,5.51-4.06l4.6,1.67a10.19,10.19,0,0,1-10.11,7.18A11.29,11.29,0,0,1,202.52,101c0-6.77,4.92-11.65,11.23-11.65,5.92,0,9.17,3.7,10.07,7.22l-4.69,1.72a5.18,5.18,0,0,0-5.33-4.11C210.59,94.17,207.75,96.56,207.75,101Z"/><path d="M175.12,160.75c-4.85-1.6-11.24-2.17-19-1.7s-18.83,2.63-33.19,6.44a1.28,1.28,0,0,0,.16,2.5,1.42,1.42,0,0,0,.5,0c14.19-3.77,25.18-5.91,32.68-6.37s13.49.08,18,1.58a1.29,1.29,0,0,0,1.61-.81A1.28,1.28,0,0,0,175.12,160.75Zm.7-6.74a2.88,2.88,0,0,0-.61-.81,3.6,3.6,0,0,0-.83-.57,1.94,1.94,0,0,0-.8-.21,2.58,2.58,0,0,0-1.32.42,1.38,1.38,0,0,0-.56,1.34v.13a1.81,1.81,0,0,0,.38.74,3.23,3.23,0,0,0,.67.66,3.51,3.51,0,0,0,.84.48,1.87,1.87,0,0,0,.87.17,1.39,1.39,0,0,0,.92-.39,2.1,2.1,0,0,0,.6-1A1.46,1.46,0,0,0,175.82,154Zm-39.09-8.1c0,2,0,3.94.09,5.74L137,157a1.87,1.87,0,0,0,.78.17,4.46,4.46,0,0,0,1,0,5.38,5.38,0,0,1,.64-.06l.42,0a8.72,8.72,0,0,0,.51-1.85c.09-.58.18-1.25.27-2,.14-1.08.31-2.27.51-3.58a23.7,23.7,0,0,1,.88-3.76,12.55,12.55,0,0,1,1.52-3.19A4.84,4.84,0,0,1,146,140.8a2.5,2.5,0,0,1,1.41.46,3,3,0,0,1,.88,1.15,6.35,6.35,0,0,1,.5,1.69,18.73,18.73,0,0,1,.2,2.1c0,.71,0,1.44,0,2.21s0,1.55-.05,2.35,0,1.52,0,2.3,0,1.55,0,2.33v0a1.61,1.61,0,0,0,.66,1.28,2,2,0,0,0,1.29.39,1.71,1.71,0,0,0,.93-.34,2.17,2.17,0,0,0,.7-.95c0-.78,0-1.6,0-2.47s0-1.68,0-2.43,0-1.68,0-2.49,0-1.58,0-2.31a28.23,28.23,0,0,0-.39-3.7,8.37,8.37,0,0,0-1-2.88,4.63,4.63,0,0,0-2-1.78,6.46,6.46,0,0,0-3.25-.46,5.68,5.68,0,0,0-2.08.37,4.82,4.82,0,0,0-1.5,1,6.44,6.44,0,0,0-1.08,1.31,12.45,12.45,0,0,0-.8,1.48c0-.18,0-.37,0-.56s0-.47-.05-.84a2.78,2.78,0,0,0-.57-1.53,1.23,1.23,0,0,0-1-.43,1.31,1.31,0,0,0-.62.21,2.25,2.25,0,0,0-.56.51,2,2,0,0,0-.37.66,1.47,1.47,0,0,0-.08.67Q136.74,142.88,136.73,145.91Zm37.11,3.39a3.35,3.35,0,0,0,2-1.28,20.27,20.27,0,0,1-.76-3.09,22.38,22.38,0,0,1-.25-2.59c0-.53,0-1.06,0-1.6s0-1.06,0-1.59,0-1.28,0-2,0-1.46,0-2.26-.08-1.54-.16-2.43-.2-1.83-.36-2.83a1.17,1.17,0,0,0-.25-.73,1.84,1.84,0,0,0-.55-.45,1.78,1.78,0,0,0-.67-.23,3.16,3.16,0,0,0-.67,0l-.76,0c-.1,1.91-.17,3.48-.19,4.74s0,2.34,0,3.26c0,.57.05,1.1.08,1.6s.07,1,.11,1.44.07.89.1,1.31,0,.89.07,1.39,0,.84,0,1.28,0,.94,0,1.49v0a6,6,0,0,0,.07,1.35,8.56,8.56,0,0,0,.38,1.53,4.08,4.08,0,0,0,.72,1.24A1.34,1.34,0,0,0,173.84,149.3Zm-54,5a6,6,0,0,0,1.28,2,5.78,5.78,0,0,0,1.94,1.31,6,6,0,0,0,2.52.42,8.1,8.1,0,0,0,3.94-1.24,10.49,10.49,0,0,0,3-2.82,12.89,12.89,0,0,0,1.84-3.76,11.8,11.8,0,0,0,.54-4,8.83,8.83,0,0,0-.55-2.81,7.28,7.28,0,0,0-1.43-2.36,6.94,6.94,0,0,0-2.36-1.65,8.91,8.91,0,0,0-3.32-.69.11.11,0,0,0-.07,0s.07,0,.06-.14a3.19,3.19,0,0,0,0-.45.87.87,0,0,0-.17-.4,1.2,1.2,0,0,0-.44-.34,3.77,3.77,0,0,0-.85-.26,14.07,14.07,0,0,0-2.76,3.11,22.45,22.45,0,0,0-3.25,7.89,17.3,17.3,0,0,0-.36,3.81A7.33,7.33,0,0,0,119.82,154.34Zm3-5.44a15.69,15.69,0,0,1,.85-3.14,9.25,9.25,0,0,1,1.56-2.67,3.29,3.29,0,0,1,2.37-1.22,4.5,4.5,0,0,1,3,1.56,4.84,4.84,0,0,1,1.06,2.87,8.08,8.08,0,0,1-.41,2.79,8.37,8.37,0,0,1-1.33,2.57,7.24,7.24,0,0,1-2.11,1.87,5,5,0,0,1-2.66.7,2.21,2.21,0,0,1-1.84-.71,3,3,0,0,1-.73-2A13.06,13.06,0,0,1,122.78,148.9Zm31.33-2.66.44.15a3,3,0,0,1,.4.16,11.73,11.73,0,0,0,.78,3.73,12.82,12.82,0,0,0,1.83,3.32,9.2,9.2,0,0,0,2.57,2.35,5.36,5.36,0,0,0,3.07.82,5.72,5.72,0,0,0,2.91-1,11.08,11.08,0,0,0,2.93-3.06,5.11,5.11,0,0,0,0-.77,2.79,2.79,0,0,0-.18-.82,1.37,1.37,0,0,0-.51-.63,1.69,1.69,0,0,0-1-.22,7,7,0,0,1-1.89,2.46,3.73,3.73,0,0,1-2.09.82,3.85,3.85,0,0,1-1.75-.36,4.65,4.65,0,0,1-1.51-1.11,5.79,5.79,0,0,1-1.1-1.7,6,6,0,0,1-.48-2.19,9.74,9.74,0,0,1,0-1.44,12.11,12.11,0,0,1,1.45-.32c.49-.07,1-.16,1.51-.25,1-.15,1.9-.33,2.78-.53a7.41,7.41,0,0,0,2.27-.93,4.32,4.32,0,0,0,1.53-1.74,6.26,6.26,0,0,0,.48-3,3.64,3.64,0,0,0-.38-1.46,4.34,4.34,0,0,0-.93-1.23,4.14,4.14,0,0,0-1.31-.82,3.83,3.83,0,0,0-1.57-.27,7.14,7.14,0,0,0-3.08.77,9.46,9.46,0,0,0-3.77,3.72q-.61,1.08-1,1.92l-.32.7c-.08.19-.1.29-.05.31a4.36,4.36,0,0,1-.83-.05,7,7,0,0,1-.76-.19,2.29,2.29,0,0,0-1.59.07,1.06,1.06,0,0,0-.6.83,1.51,1.51,0,0,0,.4,1.08A2.87,2.87,0,0,0,154.11,146.24Zm6-4a5.4,5.4,0,0,1,2.28-2,5.36,5.36,0,0,1,1.77-.48,2.86,2.86,0,0,1,.93.13.75.75,0,0,1,.57.53,2.23,2.23,0,0,1-.89,1.32,6.75,6.75,0,0,1-1.67.87,14.22,14.22,0,0,1-1.93.56c-.65.14-1.22.24-1.7.3A8.26,8.26,0,0,1,160.16,142.25Zm-56.35-2.83c-.08-.3-.38-.51-.91-.65s-1,0-1.37,0l-1.06,0h-.93l-.92,0-.76,0c-.25,0-.54,0-.89.07l0-.76c0-.66,0-1.39,0-2.19s0-1.61,0-2.43c0-.41,0-.86,0-1.35s0-1,0-1.44,0-.91,0-1.34,0-.79,0-1.11a3.22,3.22,0,0,0-2.19.79,4.06,4.06,0,0,0-1.08,1.79,8.68,8.68,0,0,0-.34,2.26c0,.8,0,1.53,0,2.19q0,.34,0,.63a4.52,4.52,0,0,1,0,.54,11.9,11.9,0,0,0,.06,1.33c0,.57.09,1.07.16,1.5v.1a3.9,3.9,0,0,0-.62,0l-.75.08-.76.05-.77,0q-1,0-1.74,0a1.77,1.77,0,0,1-1.05-.3A2.52,2.52,0,0,0,86,140a1.74,1.74,0,0,0-.45,1.22,2,2,0,0,0,.53,1.26,1.63,1.63,0,0,0,1.19.62c1,0,2,0,3,.08l3,.1q0,.93,0,1.68t0,1.44c0,.46,0,.92-.06,1.39s-.06.95-.08,1.46c0,1-.06,2-.07,3s0,2,0,3.14c0,.46,0,.91.05,1.37s.06.91.12,1.36l.78.59a3.88,3.88,0,0,0,1.63-.85,4,4,0,0,0,.94-1.39,6.8,6.8,0,0,0,.42-1.84,16.63,16.63,0,0,0,0-2.14c0-.5,0-1-.09-1.52s-.09-1-.13-1.56-.12-1.08-.17-1.62-.07-1.06-.09-1.59a15.77,15.77,0,0,1,0-1.69,10.56,10.56,0,0,1,.23-1.54.71.71,0,0,1,.38-.6,2.16,2.16,0,0,1,.79-.16h.55l.59,0,.77,0h.77a5.12,5.12,0,0,0,1.8-.38,3.39,3.39,0,0,0,1.49-1.26v-.34A3.63,3.63,0,0,0,103.81,139.42ZM86.44,151.63a4.56,4.56,0,0,0-2.34-.44,13.59,13.59,0,0,0-1.54.15l-1.64.25c-.65.12-1.3.23-1.92.32a16.61,16.61,0,0,1-1.83.17,5.74,5.74,0,0,1-.83,0,5.32,5.32,0,0,1-.74-.07,4.16,4.16,0,0,1-2-.92,1.87,1.87,0,0,1-.63-1.31,4.28,4.28,0,0,1,.89-2.54,11.35,11.35,0,0,1,2.44-2.52,15.31,15.31,0,0,1,3.34-2,10.09,10.09,0,0,1,3.6-.88h.5l.7.05a1.87,1.87,0,0,0,.53-1,1.23,1.23,0,0,0-.24-.83,2.42,2.42,0,0,0-.76-.63,5.19,5.19,0,0,0-1-.43,6.61,6.61,0,0,0-1-.21,2.56,2.56,0,0,0-.77,0h.06a12.26,12.26,0,0,0-4.48,1A12.92,12.92,0,0,0,73,142.29a11.78,11.78,0,0,0-2.58,3.6,9.32,9.32,0,0,0-.86,4.34,7.39,7.39,0,0,0,1,2.64,4.37,4.37,0,0,0,1.79,1.54,8,8,0,0,0,2.69.67,29.58,29.58,0,0,0,3.73.06l1.65-.07a10.86,10.86,0,0,1-2.49.82,16.78,16.78,0,0,1-2.71.35,5.15,5.15,0,0,1-2.28-.32,1.92,1.92,0,0,0-1.41.6,3,3,0,0,0-.71,1.26l.13.55a3.92,3.92,0,0,0,1.94,1.38,7.52,7.52,0,0,0,2.61.32,12.37,12.37,0,0,0,3.51-.69,21.06,21.06,0,0,0,3.53-1.54,18.22,18.22,0,0,0,3-2,7.46,7.46,0,0,0,1.85-2.16A2.14,2.14,0,0,0,86.44,151.63Zm-38.73,1.6c-.41-1.23-.84-2.54-1.3-3.94s-.92-2.83-1.38-4.3-.92-2.89-1.34-4.26l-1.18-3.88c-.37-1.21-.66-2.25-.88-3.14a1.58,1.58,0,0,0-.89-.53,2.63,2.63,0,0,0-1.15,0,2.26,2.26,0,0,0-1,.45,1,1,0,0,0-.4.84,12.66,12.66,0,0,0,.47,2.34q.4,1.4,1,3c.4,1.07.83,2.17,1.3,3.32s.92,2.26,1.35,3.34q.45,1.11.93,2.4a22.31,22.31,0,0,1,.79,2.57,17.81,17.81,0,0,1,.41,2.5,5.05,5.05,0,0,1-.26,2.17A3.26,3.26,0,0,1,43,157.67a4.38,4.38,0,0,1-2.39.66,6.43,6.43,0,0,1-1.93-.24,7.87,7.87,0,0,1-1.82-.76,7.18,7.18,0,0,1-1.52-1.18,4.65,4.65,0,0,1-1-1.48,4.62,4.62,0,0,0-1.08.76,4.07,4.07,0,0,0-1.11,1.79A2.31,2.31,0,0,0,32,158a2,2,0,0,0,1,1.48,9.73,9.73,0,0,0,2.44,1.24,17.46,17.46,0,0,0,3.28.83,18,18,0,0,0,3.56.22,13.48,13.48,0,0,0,2.22-.52,8.72,8.72,0,0,0,2.21-1,5.14,5.14,0,0,0,1.61-1.57,3.23,3.23,0,0,0,.5-2.16C48.49,155.54,48.13,154.46,47.71,153.23ZM67,155a17.59,17.59,0,0,1-1-3.45,30.49,30.49,0,0,1-.48-3.58q-.14-1.81-.21-3.66c0-.59-.06-1.25-.1-2s-.08-1.39-.13-2c-.44-.1-.78-.16-1-.19l-.56,0a2.07,2.07,0,0,0-.83.19,1,1,0,0,0-.48.47,2.46,2.46,0,0,0-.25.74c-.05.3-.11.66-.16,1.07a5.43,5.43,0,0,1-.11.83,18.68,18.68,0,0,1-.14,2.32,26.53,26.53,0,0,1-1.34,5.67,18.26,18.26,0,0,1-1.16,2.63,10.24,10.24,0,0,1-1.46,2.05,3.69,3.69,0,0,1-1.73,1.09c-.61,0-1-.33-1.31-1.13a11.42,11.42,0,0,1-.46-3,31.25,31.25,0,0,1,.08-3.57c.1-1.28.19-2.54.28-3.78.07-.66.12-1.31.16-1.93s.08-1.19.11-1.71a1.79,1.79,0,0,0-.52-1.42,1.71,1.71,0,0,0-1.2-.4,2.38,2.38,0,0,0-1.18.42,2.22,2.22,0,0,0-.85,1.1c0,.66,0,1.4-.07,2.2s-.07,1.57-.13,2.33c-.07,1-.14,2-.19,3s-.06,2,0,2.95a17.1,17.1,0,0,0,.34,2.85,8.85,8.85,0,0,0,.86,2.43,6.07,6.07,0,0,0,1.59,1.87,6.2,6.2,0,0,0,2.47,1.14,3.29,3.29,0,0,0,2.18-.55,8.4,8.4,0,0,0,1.91-1.74,15.32,15.32,0,0,0,1.59-2.32c.47-.84.86-1.61,1.18-2.31.16.68.36,1.41.58,2.2A13.24,13.24,0,0,0,64,158a6.52,6.52,0,0,0,1.18,1.68,2.35,2.35,0,0,0,1.64.71,2.72,2.72,0,0,0,1.31-.38,1.74,1.74,0,0,0,.62-.66,1.3,1.3,0,0,0,.16-.67,1.58,1.58,0,0,0-.05-.43A14.69,14.69,0,0,1,67,155Z"/></g></g></svg>