<svg xmlns="http://www.w3.org/2000/svg" viewBox="0 0 196 136.69"><defs><style>.eb55f71e-486a-478d-9e67-2d0616859aa2{fill:#fd7;}</style></defs><title>Asset 1</title><g id="af25f199-19f7-41b5-bfc0-860190eefc9b" data-name="Layer 2"><g id="fc8e8dc3-fec1-4461-8e17-18e82b2b38ff" data-name="Layer 1"><g id="b3cb8b56-8560-410e-99c6-f5a4d130502f" data-name="Layer 1-2"><rect class="eb55f71e-486a-478d-9e67-2d0616859aa2" y="16.68" width="92" height="20"/><path d="M20.25,0c8.39,0,16.29,6.19,16.29,16.66s-7.9,16.7-16.29,16.7S4,27.17,4,16.68,11.85,0,20.25,0Zm0,28.21C25.67,28.21,31,24.38,31,16.68S25.67,5.1,20.25,5.1,9.55,8.94,9.55,16.68,14.88,28.21,20.25,28.21Z"/><path d="M47.33,32.68H42.1v-22h5.1v3a7.31,7.31,0,0,1,6.5-3.56c5.37,0,7.94,3.88,7.94,8.71V32.68H56.4v-13c0-2.71-1.21-4.87-4.51-4.87-3,0-4.56,2.3-4.56,5.19Z"/><path d="M87.73,26.41a9.94,9.94,0,0,1-9.93,7c-6,0-11.24-4.34-11.24-11.78,0-6.95,5.15-11.56,10.7-11.56C84,10,88,14.49,88,21.44a7.2,7.2,0,0,1-.14,1.67H71.8a5.87,5.87,0,0,0,6,5.73A5.32,5.32,0,0,0,83.31,25Zm-5-7.14c-.09-2.57-1.81-4.87-5.42-4.87a5.28,5.28,0,0,0-5.37,4.87Z"/><path d="M4,80.68v-32H23.9v5.1H9.42v9h13v5h-13v12.9Z"/><path d="M32.21,47.55a3.41,3.41,0,1,1-3.39,3.39A3.41,3.41,0,0,1,32.21,47.55ZM29.64,80.68v-22h5.19v22Z"/><path d="M47.92,80.68H42.68v-22h5.1v3a7.31,7.31,0,0,1,6.5-3.56c5.37,0,7.94,3.88,7.94,8.71V80.68H57v-13c0-2.71-1.22-4.87-4.52-4.87-3,0-4.55,2.3-4.55,5.19Z"/><path d="M75,68.09l5.64-.86c1.27-.18,1.63-.81,1.63-1.58,0-1.85-1.27-3.34-4.16-3.34a4.25,4.25,0,0,0-4.51,4v0l-4.78-1.08c.4-3.79,3.83-7.18,9.25-7.18,6.77,0,9.34,3.84,9.34,8.22V77.19a20.71,20.71,0,0,0,.27,3.52H82.81a11.44,11.44,0,0,1-.23-2.8,7.67,7.67,0,0,1-6.77,3.48c-4.6,0-7.44-3.16-7.44-6.64C68.32,70.8,71.2,68.68,75,68.09Zm7.27,3.47v-1l-5.73.86c-1.63.27-2.94,1.17-2.94,3a2.91,2.91,0,0,0,3,2.86l.25,0c2.88,0,5.41-1.41,5.41-5.7Z"/><path d="M94.76,80.68V48H100V80.68Z"/><path d="M116,80.68v-32h11.33c8.71,0,15.57,5.78,15.57,16.07S136,80.68,127.28,80.68Zm11.1-5c5.56,0,10.16-3.57,10.16-11s-4.56-11-10.11-11h-5.73v22Z"/><path d="M170.24,69.68c0,6.77-4.83,11.69-11.42,11.69s-11.37-4.92-11.37-11.69S152.28,58,158.82,58,170.24,62.94,170.24,69.68Zm-5.24,0c0-4.56-2.89-6.91-6.14-6.91s-6.14,2.35-6.14,6.91,2.94,7,6.14,7S165,74.27,165,69.68Z"/><path d="M179.75,69.68c0,4.42,2.84,6.9,6.14,6.9a5.54,5.54,0,0,0,5.51-4.06l4.6,1.67a10.19,10.19,0,0,1-10.11,7.18,11.29,11.29,0,0,1-11.38-11.2c0-.17,0-.33,0-.49,0-6.77,4.92-11.65,11.23-11.65,5.92,0,9.17,3.7,10.07,7.22L191.13,67a5.18,5.18,0,0,0-5.33-4.11C182.59,62.85,179.75,65.24,179.75,69.68Z"/><path d="M147.12,129.43c-4.85-1.6-11.24-2.17-19-1.7s-18.83,2.63-33.19,6.44a1.28,1.28,0,0,0,.16,2.5,1.4,1.4,0,0,0,.5,0c14.19-3.77,25.18-5.91,32.68-6.37s13.49.08,18,1.58a1.3,1.3,0,0,0,.85-2.45Zm.7-6.74a2.83,2.83,0,0,0-.61-.81,3.6,3.6,0,0,0-.83-.57,1.87,1.87,0,0,0-.8-.21,2.58,2.58,0,0,0-1.32.42,1.37,1.37,0,0,0-.56,1.34V123a1.86,1.86,0,0,0,.38.74,3.7,3.7,0,0,0,1.51,1.14,1.86,1.86,0,0,0,.87.17,1.39,1.39,0,0,0,.92-.39,2.11,2.11,0,0,0,.6-1,1.49,1.49,0,0,0-.16-1Zm-39.09-8.1c0,2,0,3.94.09,5.74l.18,5.35a1.89,1.89,0,0,0,.78.17,4.18,4.18,0,0,0,1,0c.21,0,.43,0,.64-.06h.42a8.61,8.61,0,0,0,.51-1.85c.09-.58.18-1.25.27-2,.14-1.08.31-2.27.51-3.58a23.07,23.07,0,0,1,.88-3.76,12.63,12.63,0,0,1,1.52-3.19,4.86,4.86,0,0,1,2.47-1.93,2.52,2.52,0,0,1,1.41.46,3.11,3.11,0,0,1,.88,1.15,6.7,6.7,0,0,1,.5,1.69,18.64,18.64,0,0,1,.2,2.1v2.21c0,.77,0,1.55,0,2.35s0,1.52,0,2.3v2.33h0a1.62,1.62,0,0,0,.66,1.28,2,2,0,0,0,1.29.39,1.73,1.73,0,0,0,.93-.34,2.13,2.13,0,0,0,.7-1v-9.7a28.65,28.65,0,0,0-.39-3.7,8.24,8.24,0,0,0-1-2.88,4.6,4.6,0,0,0-2-1.78,6.47,6.47,0,0,0-3.25-.46,5.67,5.67,0,0,0-2.08.37,4.92,4.92,0,0,0-1.5,1,6.44,6.44,0,0,0-1.08,1.31,11.72,11.72,0,0,0-.8,1.48v-.56a5.87,5.87,0,0,0,0-.84,2.74,2.74,0,0,0-.57-1.53,1.24,1.24,0,0,0-1-.43,1.39,1.39,0,0,0-.62.21,2.47,2.47,0,0,0-.56.51,2,2,0,0,0-.37.66,1.38,1.38,0,0,0-.08.67,38.79,38.79,0,0,0-.44,5.81ZM145.84,118a3.35,3.35,0,0,0,2-1.28,20.5,20.5,0,0,1-.76-3.09,22.48,22.48,0,0,1-.25-2.59v-7.45c0-.8-.08-1.54-.16-2.43s-.2-1.83-.36-2.83a1.22,1.22,0,0,0-.25-.73,1.84,1.84,0,0,0-.55-.45,1.78,1.78,0,0,0-.67-.23,3.75,3.75,0,0,0-.67,0h-.76c-.1,1.91-.17,3.48-.19,4.74s0,2.34,0,3.26c0,.57.05,1.1.08,1.6s.07,1,.11,1.44.07.89.1,1.31,0,.89.07,1.39a7.81,7.81,0,0,1,0,1.28v1.49h0a6.12,6.12,0,0,0,.07,1.35,9,9,0,0,0,.38,1.53,4.07,4.07,0,0,0,.72,1.24,1.33,1.33,0,0,0,1.09.45Zm-54,5a5.83,5.83,0,0,0,3.22,3.31,6,6,0,0,0,2.52.42,8.09,8.09,0,0,0,3.94-1.24,10.35,10.35,0,0,0,3-2.82,12.77,12.77,0,0,0,1.84-3.76,11.79,11.79,0,0,0,.54-4,9,9,0,0,0-.55-2.81,7.32,7.32,0,0,0-1.43-2.36,7,7,0,0,0-2.36-1.65,9,9,0,0,0-3.32-.69h-.07s.07,0,.06-.14a3.38,3.38,0,0,0,0-.45.84.84,0,0,0-.17-.4,1.22,1.22,0,0,0-.44-.34,3.63,3.63,0,0,0-.85-.26A13.88,13.88,0,0,0,95,108.9a22.47,22.47,0,0,0-3.25,7.89,17.39,17.39,0,0,0-.36,3.81,7.17,7.17,0,0,0,.42,2.42Zm3-5.44a15.51,15.51,0,0,1,.85-3.14,9.31,9.31,0,0,1,1.56-2.67,3.28,3.28,0,0,1,2.37-1.22,4.51,4.51,0,0,1,3,1.56,4.84,4.84,0,0,1,1.06,2.87,8,8,0,0,1-.41,2.79,8.27,8.27,0,0,1-1.33,2.57,7.13,7.13,0,0,1-2.11,1.87,5,5,0,0,1-2.66.7,2.21,2.21,0,0,1-1.84-.71,3,3,0,0,1-.73-2,12.4,12.4,0,0,1,.18-2.58Zm31.33-2.66.44.15a2.78,2.78,0,0,1,.4.16,11.61,11.61,0,0,0,.78,3.73,12.81,12.81,0,0,0,1.83,3.32,9.15,9.15,0,0,0,2.57,2.35,5.38,5.38,0,0,0,3.07.82,5.74,5.74,0,0,0,2.91-1,11.09,11.09,0,0,0,2.93-3.06,5,5,0,0,0,0-.77,2.87,2.87,0,0,0-.18-.82,1.32,1.32,0,0,0-.51-.63,1.73,1.73,0,0,0-1-.22,7,7,0,0,1-1.89,2.46,3.75,3.75,0,0,1-2.09.82,3.8,3.8,0,0,1-1.75-.36,4.59,4.59,0,0,1-1.51-1.11,5.77,5.77,0,0,1-1.1-1.7,5.9,5.9,0,0,1-.48-2.19,8.65,8.65,0,0,1,0-1.44,12.11,12.11,0,0,1,1.45-.32c.49-.07,1-.16,1.51-.25,1-.15,1.9-.33,2.78-.53a7.5,7.5,0,0,0,2.27-.93,4.29,4.29,0,0,0,1.53-1.74,6.31,6.31,0,0,0,.48-3,3.52,3.52,0,0,0-.38-1.46,4.26,4.26,0,0,0-2.24-2,3.83,3.83,0,0,0-1.57-.27,7.19,7.19,0,0,0-3.08.77,9.5,9.5,0,0,0-3.77,3.72c-.41.72-.74,1.36-1,1.92l-.32.7c-.08.19-.1.29-.05.31a4.57,4.57,0,0,1-.83-.05,6.49,6.49,0,0,1-.76-.19,2.29,2.29,0,0,0-1.59.07,1.06,1.06,0,0,0-.6.83,1.53,1.53,0,0,0,.4,1.08,2.9,2.9,0,0,0,1.29.92Zm6-4a5.39,5.39,0,0,1,2.28-2,5.48,5.48,0,0,1,1.77-.48,2.91,2.91,0,0,1,.93.13.77.77,0,0,1,.57.53,2.23,2.23,0,0,1-.89,1.32,6.64,6.64,0,0,1-1.67.87,14.22,14.22,0,0,1-1.93.56c-.65.14-1.22.24-1.7.3a8.91,8.91,0,0,1,.63-1.18Zm-56.35-2.83c-.08-.3-.38-.51-.91-.65a4.46,4.46,0,0,0-1.37,0H69.87a4.27,4.27,0,0,0-.89.07V96.85a3.21,3.21,0,0,0-2.19.79,4.08,4.08,0,0,0-1.08,1.79,8.65,8.65,0,0,0-.34,2.26v2.82a4.86,4.86,0,0,1,0,.54c0,.44,0,.89.06,1.33a9,9,0,0,0,.16,1.5v.1a3.21,3.21,0,0,0-.62,0l-.75.08-.76,0H61a1.79,1.79,0,0,1-1.05-.3,2.52,2.52,0,0,0-1.9.87,1.76,1.76,0,0,0-.45,1.22,2,2,0,0,0,.53,1.26,1.63,1.63,0,0,0,1.19.62c1,0,2,0,3,.08l3,.1v3.12a10.85,10.85,0,0,1-.06,1.39c-.06.47-.06,1-.08,1.46,0,1-.06,2-.07,3s0,2,0,3.14a12.55,12.55,0,0,0,0,1.37c0,.46.06.91.12,1.36l.78.59a3.93,3.93,0,0,0,1.63-.85,4,4,0,0,0,.94-1.39,6.83,6.83,0,0,0,.42-1.84,15.28,15.28,0,0,0,0-2.14,8.73,8.73,0,0,0-.09-1.52,15.37,15.37,0,0,1-.13-1.56c0-.56-.12-1.08-.17-1.62s-.07-1.06-.09-1.59a15.88,15.88,0,0,1,0-1.69,11.44,11.44,0,0,1,.23-1.54.73.73,0,0,1,.38-.6,2.14,2.14,0,0,1,.79-.16H72.6a5.27,5.27,0,0,0,1.8-.38,3.32,3.32,0,0,0,1.49-1.26v-.34a3.71,3.71,0,0,0-.08-.81ZM58.44,120.31a4.6,4.6,0,0,0-2.34-.44,13.16,13.16,0,0,0-1.54.15l-1.64.25c-.65.12-1.3.23-1.92.32a16.17,16.17,0,0,1-1.83.17,5.75,5.75,0,0,1-.83,0,6,6,0,0,1-.74-.07,4.13,4.13,0,0,1-2-.92,1.84,1.84,0,0,1-.63-1.31,4.33,4.33,0,0,1,.89-2.54,11.44,11.44,0,0,1,2.44-2.52,15.09,15.09,0,0,1,3.34-2,10.23,10.23,0,0,1,3.6-.88h.5l.7,0a1.85,1.85,0,0,0,.53-1,1.23,1.23,0,0,0-.24-.83,2.56,2.56,0,0,0-.76-.63,5.2,5.2,0,0,0-1-.43,5.74,5.74,0,0,0-1-.21,2.49,2.49,0,0,0-.77,0h.06a12.37,12.37,0,0,0-4.48,1A12.76,12.76,0,0,0,45,111a11.78,11.78,0,0,0-2.58,3.6,9.3,9.3,0,0,0-.86,4.34,7.37,7.37,0,0,0,1,2.64,4.31,4.31,0,0,0,1.79,1.54,8.06,8.06,0,0,0,2.69.67,29,29,0,0,0,3.73.06l1.65-.07a10.85,10.85,0,0,1-2.49.82,16.48,16.48,0,0,1-2.71.35,5.08,5.08,0,0,1-2.28-.32,1.94,1.94,0,0,0-1.41.6,3,3,0,0,0-.71,1.26L43,127a4,4,0,0,0,1.94,1.38,7.43,7.43,0,0,0,2.61.32A12.35,12.35,0,0,0,51,128a20.85,20.85,0,0,0,3.53-1.54,18.87,18.87,0,0,0,3-2,7.38,7.38,0,0,0,1.85-2.16A2.15,2.15,0,0,0,58.44,120.31Zm-38.73,1.6c-.41-1.23-.84-2.54-1.3-3.94s-.92-2.83-1.38-4.3-.92-2.89-1.34-4.26l-1.18-3.88c-.37-1.21-.66-2.25-.88-3.14a1.58,1.58,0,0,0-.89-.53,2.79,2.79,0,0,0-1.15,0,2.28,2.28,0,0,0-1,.45,1,1,0,0,0-.4.84,12.44,12.44,0,0,0,.47,2.34c.27.93.6,1.93,1,3s.83,2.17,1.3,3.32.92,2.26,1.35,3.34q.45,1.11.93,2.4a23.1,23.1,0,0,1,.79,2.57,17.61,17.61,0,0,1,.41,2.5,5.17,5.17,0,0,1-.26,2.17A3.26,3.26,0,0,1,15,126.35a4.4,4.4,0,0,1-2.39.66,6.31,6.31,0,0,1-1.93-.24A7.87,7.87,0,0,1,8.86,126a7,7,0,0,1-1.52-1.18,4.5,4.5,0,0,1-1-1.48,4.79,4.79,0,0,0-1.08.76,4.14,4.14,0,0,0-1.11,1.79,2.3,2.3,0,0,0-.15.78,2,2,0,0,0,1,1.48,9.67,9.67,0,0,0,2.44,1.24,17.52,17.52,0,0,0,3.28.83,18.47,18.47,0,0,0,3.56.22,13,13,0,0,0,2.22-.52,9,9,0,0,0,2.21-1,5,5,0,0,0,1.61-1.57,3.23,3.23,0,0,0,.5-2.16c-.33-1-.69-2.06-1.11-3.29ZM39,123.68a17.25,17.25,0,0,1-1-3.45,30.78,30.78,0,0,1-.48-3.58q-.14-1.82-.21-3.66c0-.59-.06-1.25-.1-2s-.08-1.39-.13-2c-.44-.1-.78-.16-1-.19h-.56a2.14,2.14,0,0,0-.83.19,1,1,0,0,0-.48.47,2.4,2.4,0,0,0-.25.74c-.05.3-.11.66-.16,1.07a5.71,5.71,0,0,1-.11.83,19.93,19.93,0,0,1-.14,2.32,27,27,0,0,1-1.34,5.67,17.65,17.65,0,0,1-1.16,2.63,10.19,10.19,0,0,1-1.46,2,3.64,3.64,0,0,1-1.73,1.09c-.61,0-1-.33-1.31-1.13a11.3,11.3,0,0,1-.46-3,32.73,32.73,0,0,1,.08-3.57c.1-1.28.19-2.54.28-3.78.07-.66.12-1.31.16-1.93s.08-1.19.11-1.71a1.81,1.81,0,0,0-.52-1.42,1.73,1.73,0,0,0-1.2-.4,2.4,2.4,0,0,0-1.18.42,2.26,2.26,0,0,0-.85,1.1c0,.66,0,1.4-.07,2.2s-.07,1.57-.13,2.33c-.07,1-.14,2-.19,3a26.39,26.39,0,0,0,0,3,17.06,17.06,0,0,0,.34,2.85,9,9,0,0,0,.86,2.43,6,6,0,0,0,4.06,3,3.3,3.3,0,0,0,2.18-.55,8.32,8.32,0,0,0,1.91-1.74,15.36,15.36,0,0,0,1.59-2.32c.47-.84.86-1.61,1.18-2.31.16.68.36,1.41.58,2.2a14,14,0,0,0,.72,2.19,6.37,6.37,0,0,0,1.18,1.68,2.35,2.35,0,0,0,1.64.71,2.65,2.65,0,0,0,1.31-.38,1.71,1.71,0,0,0,.62-.66,1.3,1.3,0,0,0,.16-.67,1.58,1.58,0,0,0,0-.43A14.55,14.55,0,0,1,39,123.68Z"/></g></g></g></svg>